<?xml version="1.0" encoding="UTF-8"?>
<svg xmlns="http://www.w3.org/2000/svg" xmlns:xlink="http://www.w3.org/1999/xlink" width="24pt" height="24pt" viewBox="0 0 24 24" version="1.1">
<g id="surface1">
<path style=" stroke:none;fill-rule:nonzero;fill:rgb(100%,100%,100%);fill-opacity:1;" d="M 21.230469 18.386719 C 20.882812 19.1875 20.472656 19.921875 20 20.597656 C 19.351562 21.519531 18.824219 22.160156 18.414062 22.511719 C 17.78125 23.09375 17.105469 23.394531 16.378906 23.410156 C 15.859375 23.410156 15.230469 23.261719 14.5 22.960938 C 13.765625 22.660156 13.089844 22.511719 12.472656 22.511719 C 11.828125 22.511719 11.132812 22.660156 10.390625 22.960938 C 9.648438 23.261719 9.050781 23.417969 8.59375 23.433594 C 7.898438 23.464844 7.203125 23.15625 6.511719 22.511719 C 6.070312 22.128906 5.515625 21.46875 4.855469 20.53125 C 4.144531 19.53125 3.5625 18.371094 3.101562 17.050781 C 2.613281 15.625 2.367188 14.242188 2.367188 12.902344 C 2.367188 11.371094 2.699219 10.050781 3.363281 8.941406 C 3.882812 8.050781 4.578125 7.347656 5.445312 6.835938 C 6.3125 6.320312 7.25 6.054688 8.261719 6.039062 C 8.8125 6.039062 9.539062 6.210938 10.441406 6.546875 C 11.335938 6.882812 11.914062 7.054688 12.167969 7.054688 C 12.355469 7.054688 12.996094 6.855469 14.082031 6.457031 C 15.109375 6.085938 15.976562 5.933594 16.6875 5.992188 C 18.609375 6.148438 20.058594 6.90625 21.019531 8.273438 C 19.296875 9.316406 18.445312 10.777344 18.464844 12.652344 C 18.480469 14.109375 19.007812 15.324219 20.046875 16.289062 C 20.519531 16.738281 21.046875 17.082031 21.632812 17.328125 C 21.503906 17.695312 21.371094 18.050781 21.230469 18.386719 Z M 16.816406 1.023438 C 16.816406 2.164062 16.398438 3.234375 15.566406 4.222656 C 14.558594 5.398438 13.34375 6.078125 12.023438 5.96875 C 12.007812 5.832031 12 5.6875 12 5.535156 C 12 4.4375 12.476562 3.261719 13.324219 2.300781 C 13.75 1.816406 14.289062 1.410156 14.941406 1.089844 C 15.59375 0.769531 16.210938 0.59375 16.792969 0.566406 C 16.808594 0.71875 16.816406 0.871094 16.816406 1.023438 Z M 16.816406 1.023438 "/>
</g>
</svg>
