<svg width="60" height="60" viewBox="0 0 60 60" fill="none" xmlns="http://www.w3.org/2000/svg">
<rect width="60" height="60" fill="#E5E5E5"/>
<g clip-path="url(#clip0)">
<rect width="1680" height="2179" transform="translate(-1430 -824)" fill="#FCFCFC"/>
<circle cx="30" cy="30" r="30" fill="#FFDD00"/>
<path d="M43.9189 18.3534H40.4865V16.4754C40.4865 13.46 37.973 11 34.8919 11H33.3784C32.5946 11 31.8378 11.1587 31.1081 11.4761C30.4324 11.1587 29.6757 11 28.8649 11H27.3514C24.2703 11 21.7838 13.46 21.7838 16.4754V18.3534H16.0811C15.4865 18.3534 15 18.8295 15 19.4115V41.4982C15 44.5136 17.5135 46.9735 20.5946 46.9735H40.9189C43.1622 46.9735 45 45.1749 45 42.9794V19.4115C45 18.8295 44.5135 18.3534 43.9189 18.3534ZM34.8919 13.1161C36.7838 13.1161 38.3243 14.6238 38.3243 16.4754V18.3534H37.8919H34.4595V16.4754C34.4595 15.2057 34.027 14.0419 33.2703 13.1161C33.2973 13.1161 33.3243 13.1161 33.3784 13.1161H34.8919ZM23.9459 16.4754C23.9459 14.6238 25.4865 13.1161 27.3784 13.1161H28.8919C30.7838 13.1161 32.3243 14.6238 32.3243 16.4754V18.3534H28.8649H23.9459V16.4754ZM17.1622 41.4982V20.4695H22.8649H28.8919H33.3784H36.8108V42.9794C36.8108 43.6672 37 44.302 37.2973 44.8575H20.5946C18.7027 44.8839 17.1622 43.3762 17.1622 41.4982ZM42.8378 42.9794C42.8378 44.011 41.973 44.8575 40.9189 44.8575C39.8649 44.8575 39 44.011 39 42.9794V20.4695H39.4324H42.8378V42.9794Z" fill="#FA275A"/>
<path d="M27.4865 26.5532H24.7838L23.1351 33.4041H27.1351L26 38.2711L29.3243 35.5466L30.4595 30.8648L26.4595 30.8383L27.4865 26.5532Z" fill="#FA275A"/>
</g>
<defs>
<clipPath id="clip0">
<rect width="1680" height="2179" fill="white" transform="translate(-1430 -824)"/>
</clipPath>
</defs>
</svg>
