<svg width="24" height="24" viewBox="0 0 24 24" fill="none" xmlns="http://www.w3.org/2000/svg">
<path fill-rule="evenodd" clip-rule="evenodd" d="M4 2C3.44772 2 3 2.44772 3 3V21C3 21.5523 3.44772 22 4 22C4.55228 22 5 21.5523 5 21V4H11V12V21C11 21.5523 11.4477 22 12 22C12.5523 22 13 21.5523 13 21V13H19V21C19 21.5523 19.4477 22 20 22C20.5523 22 21 21.5523 21 21V12C21 11.4477 20.5523 11 20 11H13V3C13 2.44772 12.5523 2 12 2H4ZM7.5 6C6.94772 6 6.5 6.44772 6.5 7V8C6.5 8.55228 6.94772 9 7.5 9H8.5C9.05228 9 9.5 8.55228 9.5 8V7C9.5 6.44772 9.05228 6 8.5 6H7.5ZM6.5 12C6.5 11.4477 6.94772 11 7.5 11H8.5C9.05228 11 9.5 11.4477 9.5 12V13C9.5 13.5523 9.05228 14 8.5 14H7.5C6.94772 14 6.5 13.5523 6.5 13V12ZM7.5 16C6.94772 16 6.5 16.4477 6.5 17V18C6.5 18.5523 6.94772 19 7.5 19H8.5C9.05228 19 9.5 18.5523 9.5 18V17C9.5 16.4477 9.05228 16 8.5 16H7.5ZM15.5 15C14.9477 15 14.5 15.4477 14.5 16V17C14.5 17.5523 14.9477 18 15.5 18H16.5C17.0523 18 17.5 17.5523 17.5 17V16C17.5 15.4477 17.0523 15 16.5 15H15.5Z" fill="black"/>
</svg>
