<svg width="12" height="16" viewBox="0 0 12 16" fill="none" xmlns="http://www.w3.org/2000/svg">
<path fill-rule="evenodd" clip-rule="evenodd" d="M3.75 0C2.92157 0 2.25 0.716345 2.25 1.6C1.00736 1.6 0 2.67452 0 4V13.6C0 14.9255 1.00736 16 2.25 16H9.75C10.9926 16 12 14.9255 12 13.6V4C12 2.67452 10.9926 1.6 9.75 1.6C9.75 0.716344 9.07843 0 8.25 0H3.75ZM7.5 3.2C7.91421 3.2 8.25 2.84183 8.25 2.4V1.6H7.5L6.75 1.6H5.25L4.5 1.6H3.75V2.4C3.75 2.81421 4.04512 3.1549 4.42332 3.19587C4.44829 3.19858 4.47362 3.19997 4.49926 3.2C4.49951 3.2 4.49975 3.2 4.5 3.2L7.5 3.2ZM2.37803 3.2C2.68691 4.13215 3.52034 4.8 4.5 4.8L7.5 4.8C8.47966 4.8 9.31309 4.13215 9.62197 3.2H9.75C10.1642 3.2 10.5 3.55817 10.5 4V13.6C10.5 14.0418 10.1642 14.4 9.75 14.4H2.25C1.83579 14.4 1.5 14.0418 1.5 13.6V4C1.5 3.55817 1.83579 3.2 2.25 3.2H2.37803ZM3 8C3 7.55817 3.33579 7.2 3.75 7.2H8.25C8.66421 7.2 9 7.55817 9 8C9 8.44183 8.66421 8.8 8.25 8.8H3.75C3.33579 8.8 3 8.44183 3 8ZM3.75 10.4C3.33579 10.4 3 10.7582 3 11.2C3 11.6418 3.33579 12 3.75 12H8.25C8.66421 12 9 11.6418 9 11.2C9 10.7582 8.66421 10.4 8.25 10.4H3.75Z" fill="#FA275A"/>
</svg>
