<svg width="12" height="12" viewBox="0 0 12 12" fill="none" xmlns="http://www.w3.org/2000/svg">
<path d="M6 0.1875C2.78906 0.1875 0.1875 2.78906 0.1875 6C0.1875 9.21094 2.78906 11.8125 6 11.8125C9.21094 11.8125 11.8125 9.21094 11.8125 6C11.8125 2.78906 9.21094 0.1875 6 0.1875ZM7.33828 8.39297L5.27109 6.89062C5.19844 6.83672 5.15625 6.75234 5.15625 6.66328V2.71875C5.15625 2.56406 5.28281 2.4375 5.4375 2.4375H6.5625C6.71719 2.4375 6.84375 2.56406 6.84375 2.71875V5.94609L8.33203 7.02891C8.45859 7.12031 8.48438 7.29609 8.39297 7.42266L7.73203 8.33203C7.64062 8.45625 7.46484 8.48438 7.33828 8.39297Z" fill="#7E7E7E"/>
</svg>
