<svg width="60" height="60" viewBox="0 0 60 60" fill="none" xmlns="http://www.w3.org/2000/svg">
<rect width="60" height="60" fill="#E5E5E5"/>
<g clip-path="url(#clip0)">
<rect width="1680" height="2179" transform="translate(-1507 -743)" fill="#FCFCFC"/>
<circle cx="30" cy="30" r="30" fill="#FFDD00"/>
<g clip-path="url(#clip1)">
<path d="M43.5044 17.714C43.9069 17.4817 44.0411 16.9538 43.8028 16.5409L40.0865 10.1041C39.4364 8.97814 38.0092 8.57609 36.9116 9.20977L10.5702 24.418C9.49094 25.0411 9.1255 26.4781 9.77558 27.6041L13.4919 34.0409C13.7302 34.4538 14.2545 34.6015 14.657 34.3691C16.3216 33.408 18.4953 34.0046 19.4921 35.7311C20.4889 37.4576 19.9079 39.6197 18.2432 40.5807C17.8408 40.8131 17.7066 41.341 17.9449 41.7538L20.9136 46.8958C21.5637 48.0217 22.9909 48.4238 24.0885 47.7901L50.4299 32.5819C51.5274 31.9482 51.8929 30.5112 51.2428 29.3852L48.2741 24.2433C48.0357 23.8304 47.5115 23.6827 47.109 23.9151C45.4444 24.8761 43.2707 24.2795 42.2739 22.553C41.2771 20.8266 41.8398 18.6751 43.5044 17.714ZM47.1933 25.7931L49.7719 30.2594C49.9453 30.5597 49.8483 30.9409 49.5557 31.1099L23.2143 46.3181C22.9216 46.4871 22.5429 46.3805 22.3696 46.0802L19.7909 41.6138C21.7253 40.0216 22.2482 37.1675 20.9372 34.8968C19.6262 32.6261 16.9005 31.6226 14.5544 32.5017L11.239 26.7592C11.0656 26.4589 11.1626 26.0777 11.4553 25.9087L37.7967 10.7005C38.0893 10.5315 38.468 10.6382 38.6414 10.9384L40.2991 13.8097L41.9568 16.6809C40.0224 18.2731 39.4995 21.1272 40.8105 23.3979C42.1215 25.6687 44.8472 26.6722 47.1933 25.7931Z" fill="#FA275A"/>
<path d="M27.8034 22.172L25.0242 23.7572L27.5666 32.0657L31.6899 29.724L33.4924 35.6025L35.2278 30.7328L33.4894 25.031L29.3888 27.3791L27.8034 22.172Z" fill="#FA275A"/>
</g>
</g>
<defs>
<clipPath id="clip0">
<rect width="1680" height="2179" fill="white" transform="translate(-1507 -743)"/>
</clipPath>
<clipPath id="clip1">
<rect width="35" height="27" fill="white" transform="translate(8.5946 25.5586) rotate(-30)"/>
</clipPath>
</defs>
</svg>
