<svg width="14" height="11" viewBox="0 0 14 11" fill="none" xmlns="http://www.w3.org/2000/svg">
<path d="M12.7821 7.08468C12.9851 7.07365 13.1465 6.9058 13.1465 6.6998C13.1465 5.58916 12.2549 4.71914 11.1168 4.71914H10.7407L10.281 2.53711C10.7246 2.34439 11.0358 1.90177 11.0358 1.38759C11.0358 0.69692 10.4745 0.13501 9.7847 0.13501H8.00631C7.79342 0.13501 7.62081 0.307818 7.62081 0.520973V1.00163H6.6732C6.4603 1.00163 6.2877 1.17443 6.2877 1.38759C6.2877 1.60074 6.4603 1.77355 6.6732 1.77355H7.62081V2.2542C7.62081 2.46736 7.79342 2.64017 8.00631 2.64017H8.17747C7.85831 3.01761 7.66525 3.50519 7.66525 4.03733V6.23369C7.66525 6.24496 7.65612 6.25409 7.64487 6.25409H6.08764C6.07866 6.25409 6.07063 6.2481 6.06808 6.23948L5.64828 4.81908C5.98662 4.72859 6.23662 4.41917 6.23662 4.05228C6.23662 3.18111 5.52874 2.47238 4.65865 2.47238H1.18532C0.531754 2.47235 0 3.00475 0 3.65913C0 4.25738 0.444449 4.75337 1.02007 4.83416C0.40943 5.38104 0.0243671 6.17551 0.0243671 7.05844V8.26005C0.0243671 8.4732 0.19697 8.64601 0.409867 8.64601H0.743416C0.922966 9.54247 1.71517 10.22 2.6626 10.22C3.61004 10.22 4.40224 9.54247 4.58179 8.64601H9.29749C9.47704 9.54247 10.2692 10.22 11.2167 10.22C12.296 10.22 13.1742 9.34074 13.1742 8.26005C13.1742 7.81943 13.0282 7.41239 12.7821 7.08468ZM12.3123 6.31384H11.4445C11.3697 6.30512 11.2938 6.30012 11.2167 6.30012C11.0785 6.30012 10.9437 6.31474 10.8136 6.34212V5.49107H11.1169C11.6815 5.49107 12.1482 5.8309 12.3123 6.31384ZM8.39179 0.90691H9.7847C10.0494 0.90691 10.2648 1.12253 10.2648 1.38756C10.2648 1.65259 10.0494 1.86821 9.7847 1.86821H8.39179V0.90691ZM6.08766 7.02599H7.6449C8.08127 7.02599 8.43625 6.67057 8.43625 6.23366V4.0373C8.43625 3.37391 8.90162 2.81725 9.52268 2.67745L10.0426 5.1453V6.69283C9.66536 6.97687 9.39367 7.39405 9.29751 7.87406H5.4649C5.28486 6.48927 4.14133 5.45322 2.71404 5.45322C2.07759 5.45322 1.50621 5.66112 1.0554 6.01853C1.42778 5.32143 2.16193 4.84595 3.00518 4.84595H4.8523L5.32889 6.4585C5.42759 6.79264 5.73963 7.02599 6.08766 7.02599ZM0.826681 7.87406C0.894045 7.46344 1.06945 7.09305 1.3377 6.80604C1.68782 6.43143 2.1766 6.22512 2.71399 6.22512C3.70828 6.22512 4.51152 6.92387 4.68397 7.87403H0.826681V7.87406ZM1.18532 4.07402C0.956854 4.07402 0.770974 3.88791 0.770974 3.65913C0.770974 3.43036 0.956854 3.24425 1.18532 3.24425H4.65865C5.10364 3.24425 5.46565 3.6067 5.46565 4.05223C5.46235 4.0681 5.43693 4.0786 5.38961 4.07397C5.0689 4.07397 5.16058 4.07397 5.09378 4.07397C4.63318 4.07402 1.18756 4.07402 1.18532 4.07402ZM2.6626 9.44801C2.14328 9.44801 1.70112 9.1121 1.54071 8.64598H3.7845C3.62409 9.1121 3.18193 9.44801 2.6626 9.44801ZM11.2167 9.44801C10.5624 9.44801 10.0302 8.91508 10.0302 8.26002C10.0302 7.60496 10.5625 7.07205 11.2167 7.07205C11.871 7.07205 12.4032 7.60496 12.4032 8.26002C12.4032 8.91508 11.8709 9.44801 11.2167 9.44801Z" fill="#5BC4BA"/>
</svg>
