<svg width="60" height="60" viewBox="0 0 60 60" fill="none" xmlns="http://www.w3.org/2000/svg">
<rect width="60" height="60" fill="#E5E5E5"/>
<g clip-path="url(#clip0)">
<rect width="1680" height="2179" transform="translate(-1430 -743)" fill="#FCFCFC"/>
<circle cx="30" cy="30" r="30" fill="#FFDD00"/>
<path d="M29.4844 47C19.854 47 12 39.146 12 29.4844C12 19.8228 19.854 12 29.4844 12C30.9492 12 32.3829 12.187 33.7854 12.5298C36.8709 13.309 39.707 14.9297 41.951 17.2048C44.195 19.48 45.7845 22.3161 46.5325 25.4328C46.8442 26.7729 47 28.1443 47 29.5156C47 39.146 39.146 47 29.4844 47ZM29.4844 14.3998C21.1941 14.3998 14.3998 21.1941 14.3998 29.4844C14.3998 37.7747 21.163 44.569 29.4844 44.569C37.8059 44.569 44.569 37.8059 44.569 29.4844C44.569 28.3001 44.4443 27.1158 44.1638 25.9626C43.5405 23.2823 42.1692 20.8513 40.2057 18.8878C38.2734 16.9243 35.8424 15.5218 33.1621 14.8673C32.0089 14.5557 30.7622 14.3998 29.4844 14.3998Z" fill="#FA275A"/>
<path d="M33.2673 35.2212L28.2793 39.3691L30.012 31.9396L24.0001 31.9134L26.4941 21.4386L30.537 21.4649L28.9881 28.0017L34.9999 28.028L33.2673 35.2212Z" fill="#FA275A"/>
</g>
<defs>
<clipPath id="clip0">
<rect width="1680" height="2179" fill="white" transform="translate(-1430 -743)"/>
</clipPath>
</defs>
</svg>
