<svg width="60" height="60" viewBox="0 0 60 60" fill="none" xmlns="http://www.w3.org/2000/svg">
<rect width="60" height="60" fill="#E5E5E5"/>
<g clip-path="url(#clip0)">
<rect width="1680" height="2179" transform="translate(-1345 -743)" fill="#FCFCFC"/>
<circle cx="30" cy="30" r="30" fill="#FFDD00"/>
<g clip-path="url(#clip1)">
<path d="M45.5309 22.02H40.037C40.963 20.9501 41.5391 19.5715 41.5391 18.0283C41.5391 14.6949 38.823 11.9789 35.4897 11.9789C33.4321 11.9995 31.5802 13.0694 30.5103 14.6744C29.4198 13.0694 27.5679 11.9995 25.4897 11.9995C22.1564 11.9995 19.4403 14.7155 19.4403 18.0488C19.4403 19.5715 20.0165 20.9706 20.9424 22.0406H15.4691C14.1111 22.0406 13 23.1517 13 24.5097V27.3698C13 28.7278 14.1111 29.839 15.4691 29.839H15.8807V44.5715C15.8807 45.9295 16.9918 47.0406 18.3498 47.0406H28.3704H32.6708H42.6914C44.0494 47.0406 45.1605 45.9295 45.1605 44.5715V29.8184H45.572C46.93 29.8184 48.0412 28.7073 48.0412 27.3492V24.4892C48 23.1311 46.8889 22.02 45.5309 22.02ZM35.5103 14.0571C37.7119 14.0571 39.5021 15.8472 39.5021 18.0488C39.5021 20.2505 37.7119 22.0406 35.5103 22.0406H32.6502H31.5391V18.0488C31.5391 15.8472 33.3086 14.0571 35.5103 14.0571ZM31.6214 27.7608H29.3786V24.0776H30.4897H31.6008V27.7608H31.6214ZM21.4979 18.0488C21.4979 15.8472 23.2881 14.0571 25.4897 14.0571C27.6914 14.0571 29.4815 15.8472 29.4815 18.0488V22.0406H28.3704H25.4897C23.2881 22.02 21.4979 20.2299 21.4979 18.0488ZM15.0576 27.3492V24.4892C15.0576 24.2628 15.2428 24.0776 15.4691 24.0776H25.4897H27.321V27.7402H16.8889H15.4486C15.2428 27.7608 15.0576 27.5756 15.0576 27.3492ZM17.9177 44.5303V29.8184H27.321V44.9418H18.3292C18.1029 44.9418 17.9177 44.7567 17.9177 44.5303ZM29.3786 44.9418V29.8184H31.6214V44.9418H29.3786ZM43.0823 44.5303C43.0823 44.7567 42.8971 44.9418 42.6708 44.9418H33.679V29.8184H43.0823V44.5303ZM45.9424 27.3492C45.9424 27.5756 45.7572 27.7608 45.5309 27.7608H44.0905H33.6584V24.0776H35.4897H45.5103C45.7366 24.0776 45.9218 24.2628 45.9218 24.4892V27.3492H45.9424Z" fill="#FA275A"/>
</g>
</g>
<defs>
<clipPath id="clip0">
<rect width="1680" height="2179" fill="white" transform="translate(-1345 -743)"/>
</clipPath>
<clipPath id="clip1">
<rect width="35" height="35" fill="white" transform="translate(13 12)"/>
</clipPath>
</defs>
</svg>
