<svg width="24" height="24" viewBox="0 0 24 24" fill="none" xmlns="http://www.w3.org/2000/svg">
<g clip-path="url(#clip0)">
<path d="M23.5231 12.2731C23.5231 11.4574 23.457 10.6372 23.3159 9.83472H11.9971V14.4557H18.4788C18.2098 15.9461 17.3456 17.2644 16.0801 18.1022V21.1006H19.9471C22.2179 19.0105 23.5231 15.924 23.5231 12.2731Z" fill="#4285F4"/>
<path d="M11.9969 23.9986C15.2334 23.9986 17.9628 22.9359 19.9514 21.1016L16.0844 18.1033C15.0085 18.8352 13.6196 19.2497 12.0013 19.2497C8.87072 19.2497 6.2163 17.1376 5.26388 14.298H1.27344V17.389C3.31055 21.4412 7.45973 23.9986 11.9969 23.9986Z" fill="#34A853"/>
<path d="M5.25961 14.2989C4.75695 12.8086 4.75695 11.1948 5.25961 9.70441V6.61346H1.27357C-0.42843 10.0042 -0.42843 13.9991 1.27357 17.3899L5.25961 14.2989Z" fill="#FBBC04"/>
<path d="M11.9969 4.74765C13.7078 4.72119 15.3613 5.36495 16.6003 6.54666L20.0263 3.1206C17.8569 1.08349 14.9776 -0.0364802 11.9969 -0.00120549C7.45973 -0.00120549 3.31055 2.55621 1.27344 6.61279L5.25947 9.70374C6.20748 6.85972 8.86631 4.74765 11.9969 4.74765Z" fill="#EA4335"/>
</g>
<defs>
<clipPath id="clip0">
<rect width="23.5238" height="24" fill="white"/>
</clipPath>
</defs>
</svg>
