<svg width="36" height="36" viewBox="0 0 36 36" fill="none" xmlns="http://www.w3.org/2000/svg">
<path d="M7.59998 15.7001H24.5V22.8501C24.5 27.5169 20.7168 31.3001 16.05 31.3001V31.3001C11.3832 31.3001 7.59998 27.5169 7.59998 22.8501V15.7001Z" stroke="#FA275A" stroke-width="2" stroke-linejoin="round"/>
<path d="M18 12.5C18 12.5 19.625 10.625 18.0001 9C16.7253 7.72523 17 6 18.0001 5.5" stroke="#FA275A" stroke-width="2" stroke-linecap="round"/>
<path d="M5 32.6001H27.1" stroke="#FA275A" stroke-width="2" stroke-linejoin="round"/>
<path d="M24.5 17.0001H27.5C29.433 17.0001 31 18.5671 31 20.5001V20.5001C31 23.5929 28.4928 26.1001 25.4 26.1001H24.5V17.0001Z" stroke="#FA275A" stroke-width="2" stroke-linejoin="round"/>
<path d="M14 3.5C12 4.5 10.7012 7.61194 13 9C15.2987 10.3881 14.9999 13 13.4999 13.5" stroke="#FA275A" stroke-width="2" stroke-linecap="round"/>
</svg>
