<svg width="14" height="14" viewBox="0 0 14 14" fill="none" xmlns="http://www.w3.org/2000/svg">
<path fill-rule="evenodd" clip-rule="evenodd" d="M7 13.6667C3.3181 13.6667 0.333332 10.6819 0.333332 7C0.333332 3.3181 3.3181 0.333328 7 0.333328C10.6819 0.333328 13.6667 3.3181 13.6667 7C13.6667 10.6819 10.6819 13.6667 7 13.6667ZM7 1.66666C4.05448 1.66666 1.66667 4.05448 1.66667 7C1.66667 9.94551 4.05448 12.3333 7 12.3333C9.94552 12.3333 12.3333 9.94551 12.3333 7C12.3333 4.05448 9.94552 1.66666 7 1.66666ZM7 6.16666C7.46024 6.16666 7.83333 6.53976 7.83333 7V9.66666C7.83333 10.1269 7.46024 10.5 7 10.5C6.53976 10.5 6.16667 10.1269 6.16667 9.66666V7C6.16667 6.53976 6.53976 6.16666 7 6.16666ZM7 3.66666C6.53976 3.66666 6.16667 4.03976 6.16667 4.5C6.16667 4.96023 6.53976 5.33333 7 5.33333C7.46024 5.33333 7.83333 4.96023 7.83333 4.5C7.83333 4.03976 7.46024 3.66666 7 3.66666Z" fill="#222222"/>
</svg>
