<svg width="24" height="24" viewBox="0 0 24 24" fill="none" xmlns="http://www.w3.org/2000/svg">
<path fill-rule="evenodd" clip-rule="evenodd" d="M13.2526 16.6585C12.8889 17.0741 12.2571 17.1163 11.8415 16.7526C11.4259 16.3889 11.3837 15.7571 11.7474 15.3415L13.7962 13L4 13C3.44771 13 3 12.5523 3 12C3 11.4477 3.44771 11 4 11L13.7962 11L11.7474 8.65851C11.3837 8.24287 11.4259 7.61111 11.8415 7.24742C12.2571 6.88374 12.8889 6.92586 13.2526 7.3415L16.7526 11.3415C17.0825 11.7185 17.0825 12.2815 16.7526 12.6585L13.2526 16.6585ZM16 4C15.4477 4 15 3.55229 15 3C15 2.44772 15.4477 2 16 2L19 2C20.1046 2 21 2.89543 21 4L21 20C21 21.1046 20.1046 22 19 22L16 22C15.4477 22 15 21.5523 15 21C15 20.4477 15.4477 20 16 20L19 20L19 4L16 4Z" fill="white"/>
</svg>
