<svg width="57" height="57" viewBox="0 0 57 57" fill="none" xmlns="http://www.w3.org/2000/svg">
<circle cx="28.5" cy="28.5" r="28.5" fill="#FFDD00"/>
<path d="M40 24.3334H41.6667C43.4348 24.3334 45.1305 25.0358 46.3807 26.286C47.631 27.5362 48.3333 29.2319 48.3333 31C48.3333 32.7682 47.631 34.4638 46.3807 35.7141C45.1305 36.9643 43.4348 37.6667 41.6667 37.6667H40" stroke="#FA275A" stroke-width="2" stroke-linecap="round" stroke-linejoin="round"/>
<path d="M13.3333 24.3334H39.9999V39.3334C39.9999 41.1015 39.2975 42.7972 38.0473 44.0474C36.7971 45.2977 35.1014 46 33.3333 46H19.9999C18.2318 46 16.5361 45.2977 15.2859 44.0474C14.0356 42.7972 13.3333 41.1015 13.3333 39.3334V24.3334Z" stroke="#FA275A" stroke-width="2" stroke-linecap="round" stroke-linejoin="round"/>
<path d="M20 12.6666V17.6666" stroke="#FA275A" stroke-width="2" stroke-linecap="round" stroke-linejoin="round"/>
<path d="M26.6667 12.6666V17.6666" stroke="#FA275A" stroke-width="2" stroke-linecap="round" stroke-linejoin="round"/>
<path d="M33.3333 12.6666V17.6666" stroke="#FA275A" stroke-width="2" stroke-linecap="round" stroke-linejoin="round"/>
</svg>
