<svg width="60" height="60" viewBox="0 0 60 60" fill="none" xmlns="http://www.w3.org/2000/svg">
<rect width="60" height="60" fill="#E5E5E5"/>
<g clip-path="url(#clip0)">
<rect width="1680" height="2179" transform="translate(-1507 -662)" fill="#FCFCFC"/>
<circle cx="30" cy="30" r="30" fill="#FFDD00"/>
<g clip-path="url(#clip1)">
<path d="M26.8878 55C26.7192 55 26.5265 54.9512 26.382 54.8537C26.0206 54.6343 25.852 54.2199 25.9484 53.8055L29.682 37.7158L17.0599 37.6426C16.7708 37.6426 16.5058 37.4963 16.3131 37.2769C16.1204 37.0575 16.0723 36.7406 16.1204 36.4725L20.1191 17.6524L16.9635 17.6768C16.5781 17.6768 16.2168 17.433 16.0723 17.0673C15.9277 16.7016 16 16.2872 16.2891 15.9946L27.1287 5.26817C27.3455 5.07314 27.6345 4.95125 27.9236 5.00001C28.2127 5.02439 28.4776 5.19504 28.6222 5.43882L35.3668 16.1653C35.5595 16.4578 35.5595 16.8479 35.3909 17.1648C35.2223 17.4817 34.9092 17.6768 34.5478 17.6768H31.4405L29.682 26.648L30.9828 26.6967C31.5127 26.7211 31.9222 27.1843 31.8981 27.7206C31.8741 28.257 31.4164 28.6714 30.8864 28.647L28.4776 28.5495C28.1886 28.5495 27.9236 28.4032 27.755 28.1838C27.5864 27.9644 27.5141 27.6719 27.5623 27.3793L29.682 16.5066C29.7784 16.0434 30.1638 15.7265 30.6215 15.7265H32.7653L27.6345 7.51098L19.3482 15.7021L21.3235 15.6777C21.6125 15.6777 21.9016 15.7996 22.0702 16.0434C22.2629 16.2628 22.3352 16.5797 22.2629 16.8723L18.2643 35.6924L30.9105 35.7655C31.1996 35.7655 31.4886 35.9118 31.6573 36.1312C31.8259 36.3506 31.8981 36.6675 31.85 36.96L28.5017 51.392L37.5348 43.786L38.9319 38.5934C39.0764 38.0814 39.6063 37.7645 40.1122 37.9108C40.618 38.0571 40.9312 38.5934 40.7866 39.1053L39.2932 44.5904C39.245 44.7855 39.1246 44.9561 38.98 45.078L27.5141 54.7318C27.3214 54.9025 27.1046 55 26.8878 55Z" fill="#FA275A"/>
<path d="M42.0151 37.0575C37.0771 37.0575 33.0303 32.9863 33.0303 27.9644C33.0303 22.9424 37.0771 18.8956 42.0151 18.8956C46.9532 18.8956 51 22.9668 51 27.9888C51 33.0107 46.9773 37.0575 42.0151 37.0575ZM42.0151 20.8459C38.137 20.8459 34.9573 24.0395 34.9573 27.9888C34.9573 31.9381 38.1129 35.1316 42.0151 35.1316C45.9174 35.1316 49.0729 31.9381 49.0729 27.9888C49.0729 24.0395 45.8933 20.8459 42.0151 20.8459Z" fill="#FA275A"/>
<path d="M37.9684 30.5729C37.9684 29.8416 38.0888 29.354 38.956 28.3057C39.1728 28.0619 39.4378 27.7206 39.6305 27.4525C39.9918 26.9649 40.1363 26.7455 40.1363 26.3311V26.2336C40.1363 25.8923 40.04 25.746 39.7268 25.746C39.4137 25.746 39.3173 25.8923 39.3173 26.2336V26.9649H38.0888V26.0873C38.0888 25.2828 38.4742 24.6733 39.6305 24.6733H39.8473C41.0998 24.6733 41.5334 25.234 41.5334 26.1604V26.2579C41.5334 26.9893 41.3166 27.4281 40.8108 28.0132C40.5699 28.2813 40.2808 28.5739 40.0159 28.842C39.2932 29.5734 39.1728 29.8903 39.1728 30.0853H40.3772V29.0614H41.6057V31.1824H37.9684V30.5729Z" fill="#FA275A"/>
<path d="M43.0991 27.7694L42.1115 24.7465H43.5086L44.0626 26.7942L44.6167 24.7465H45.9415L44.978 27.7938L46.0619 31.158H44.713L44.0385 28.9152L43.3641 31.158H42.0151L43.0991 27.7694Z" fill="#FA275A"/>
</g>
</g>
<defs>
<clipPath id="clip0">
<rect width="1680" height="2179" fill="white" transform="translate(-1507 -662)"/>
</clipPath>
<clipPath id="clip1">
<rect width="35" height="50" fill="white" transform="translate(16 5)"/>
</clipPath>
</defs>
</svg>
