<svg width="60" height="60" viewBox="0 0 60 60" fill="none" xmlns="http://www.w3.org/2000/svg">
<rect width="60" height="60" fill="#E5E5E5"/>
<g clip-path="url(#clip0)">
<rect width="1680" height="2179" transform="translate(-1430 -662)" fill="#FCFCFC"/>
<circle cx="30" cy="30" r="30" fill="#FFDD00"/>
<g clip-path="url(#clip1)">
<path d="M24.8878 55.0005C24.7192 55.0005 24.5265 54.9517 24.382 54.8542C24.0206 54.6348 23.852 54.2204 23.9484 53.806L27.682 37.7162L15.0599 37.6431C14.7708 37.6431 14.5058 37.4968 14.3131 37.2774C14.1204 37.058 14.0723 36.7411 14.1204 36.4729L18.1191 17.6529L14.9635 17.6772C14.5781 17.6772 14.2168 17.4335 14.0723 17.0678C13.9277 16.7021 14 16.2877 14.2891 15.9951L25.1287 5.26866C25.3455 5.07363 25.6345 4.95174 25.9236 5.0005C26.2127 5.02488 26.4776 5.19552 26.6222 5.43931L33.3668 16.1658C33.5595 16.4583 33.5595 16.8484 33.3909 17.1653C33.2223 17.4822 32.9092 17.6772 32.5478 17.6772H29.4405L27.682 26.6485L28.9828 26.6972C29.5127 26.7216 29.9222 27.1848 29.8981 27.7211C29.8741 28.2574 29.4164 28.6719 28.8864 28.6475L26.4776 28.55C26.1886 28.55 25.9236 28.4037 25.755 28.1843C25.5864 27.9649 25.5141 27.6724 25.5623 27.3798L27.682 16.5071C27.7784 16.0439 28.1638 15.727 28.6215 15.727H30.7653L25.6345 7.51147L17.3482 15.7026L19.3235 15.6782C19.6366 15.6782 19.9016 15.8001 20.0702 16.0439C20.2629 16.2633 20.3352 16.5802 20.2629 16.8728L16.2643 35.6928L28.9105 35.766C29.1996 35.766 29.4886 35.9122 29.6573 36.1316C29.8259 36.3511 29.8981 36.668 29.85 36.9605L26.5017 51.3925L35.5348 43.7865L36.9319 38.5939C37.0764 38.0819 37.6063 37.765 38.1122 37.9113C38.618 38.0575 38.9312 38.5939 38.7866 39.1058L37.2932 44.5909C37.245 44.786 37.1246 44.9566 36.98 45.0785L25.5141 54.7323C25.3214 54.903 25.1046 55.0005 24.8878 55.0005Z" fill="#FA275A"/>
<path d="M40.0151 37.0575C35.0771 37.0575 31.0303 32.9863 31.0303 27.9644C31.0303 22.9424 35.0771 18.8956 40.0151 18.8956C44.9532 18.8956 49 22.9668 49 27.9888C49 33.0107 44.9773 37.0575 40.0151 37.0575ZM40.0151 20.8459C36.1369 20.8459 32.9573 24.0395 32.9573 27.9888C32.9573 31.9381 36.1129 35.1316 40.0151 35.1316C43.9174 35.1316 47.0729 31.9381 47.0729 27.9888C47.0729 24.0395 43.8933 20.8459 40.0151 20.8459Z" fill="#FA275A"/>
<path d="M34.3785 25.9654C35.053 25.9654 35.2698 25.7948 35.3662 25.356H36.2815V30.7192H35.1734V26.843H34.4026V25.9654H34.3785Z" fill="#FA275A"/>
<path d="M36.98 30.7436V29.5491H38.1121V30.7436H36.98Z" fill="#FA275A"/>
<path d="M38.7866 25.356H41.5086V26.3311H39.8224V27.3306C39.8947 27.2087 40.1837 26.843 40.7137 26.843H40.7378C41.34 26.843 41.6049 27.2575 41.6049 27.8425V29.4759C41.6049 30.2072 41.1954 30.7923 40.2319 30.7923H40.0633C39.0516 30.7923 38.7144 30.2804 38.7144 29.5978V28.8421H39.7983V29.5003C39.7983 29.7197 39.9188 29.8659 40.1356 29.8659C40.3523 29.8659 40.4728 29.7197 40.4728 29.5003V28.1595C40.4728 27.9401 40.3764 27.7938 40.1596 27.7938C39.9188 27.7938 39.8224 27.9401 39.8224 28.1595V28.3301H38.7625V25.356H38.7866Z" fill="#FA275A"/>
<path d="M42.9058 27.8913L42.0627 25.356H43.2189L43.7007 27.0624L44.1584 25.356H45.2664L44.4474 27.9157L45.3628 30.7436H44.2306L43.6766 28.8664L43.1226 30.7436H42.0145L42.9058 27.8913Z" fill="#FA275A"/>
</g>
</g>
<defs>
<clipPath id="clip0">
<rect width="1680" height="2179" fill="white" transform="translate(-1430 -662)"/>
</clipPath>
<clipPath id="clip1">
<rect width="35" height="50" fill="white" transform="translate(14 5)"/>
</clipPath>
</defs>
</svg>
