<svg width="24" height="24" viewBox="0 0 24 24" fill="none" xmlns="http://www.w3.org/2000/svg">
<path fill-rule="evenodd" clip-rule="evenodd" d="M5.15789 2C3.41384 2 2 3.41384 2 5.15789V17.7895C2 19.5335 3.41384 20.9474 5.15789 20.9474H9.36842H12.1918C13.1921 21.6125 14.3929 22 15.6842 22C19.1723 22 22 19.1723 22 15.6842C22 12.5547 19.7239 9.95688 16.7368 9.45575V5.15789C16.7368 3.41384 15.323 2 13.5789 2H5.15789ZM9.36842 15.6842C9.36842 16.8346 9.67598 17.9131 10.2134 18.8421H9.36842H5.15789C4.57654 18.8421 4.10526 18.3708 4.10526 17.7895V5.15789C4.10526 4.57654 4.57654 4.10526 5.15789 4.10526H6.21053V5.15789C6.21053 5.73925 6.68181 6.21053 7.26316 6.21053C7.84451 6.21053 8.31579 5.73925 8.31579 5.15789V4.10526H13.5789C14.1603 4.10526 14.6316 4.57654 14.6316 5.15789V9.45575C11.6445 9.95688 9.36842 12.5547 9.36842 15.6842ZM11.4737 15.6842C11.4737 13.3588 13.3588 11.4737 15.6842 11.4737C18.0096 11.4737 19.8947 13.3588 19.8947 15.6842C19.8947 18.0096 18.0096 19.8947 15.6842 19.8947C13.3588 19.8947 11.4737 18.0096 11.4737 15.6842ZM7.26316 10.4211C6.68181 10.4211 6.21053 9.94977 6.21053 9.36842V8.31579C6.21053 7.73444 6.68181 7.26316 7.26316 7.26316C7.84451 7.26316 8.31579 7.73444 8.31579 8.31579V9.36842C8.31579 9.94977 7.84451 10.4211 7.26316 10.4211ZM6.21053 13.5789C6.21053 14.1603 6.68181 14.6316 7.26316 14.6316C7.84451 14.6316 8.31579 14.1603 8.31579 13.5789V12.5263C8.31579 11.945 7.84451 11.4737 7.26316 11.4737C6.68181 11.4737 6.21053 11.945 6.21053 12.5263V13.5789ZM17.9415 14.576C18.2015 14.056 17.9907 13.4237 17.4708 13.1638C16.9508 12.9038 16.3185 13.1145 16.0585 13.6345L15.1993 15.3528L15.1771 15.3261C14.8049 14.8795 14.1412 14.8192 13.6945 15.1913C13.2479 15.5635 13.1876 16.2273 13.5598 16.6739L14.6124 17.937C14.8398 18.2099 15.1895 18.3497 15.5424 18.3088C15.8953 18.2678 16.2037 18.0516 16.3626 17.7339L17.9415 14.576Z" fill="#FA275A"/>
</svg>
