<svg width="18" height="18" viewBox="0 0 18 18" fill="none" xmlns="http://www.w3.org/2000/svg">
<path fill-rule="evenodd" clip-rule="evenodd" d="M12.0083 1.15739C12.6625 0.503201 13.7232 0.503201 14.3773 1.15739L16.8428 3.62282C17.497 4.27701 17.497 5.33766 16.8428 5.99185L6.61818 16.2164C6.38532 16.4493 6.089 16.6084 5.76625 16.6737L2.67452 17.3C2.12414 17.4115 1.5545 17.2398 1.15742 16.8427C0.760334 16.4457 0.588632 15.876 0.700123 15.3256L1.32642 12.2339C1.3918 11.9112 1.55086 11.6148 1.78372 11.382L12.0083 1.15739ZM2.70298 13.8759L2.8107 13.3442L4.65599 15.1895L4.12425 15.2972L2.34193 15.6582L2.70298 13.8759ZM6.15058 14.315L3.68514 11.8496L10.8764 4.65832L13.3418 7.12375L6.15058 14.315ZM14.5264 5.93924L15.6583 4.80734L14.4737 3.62282L14.3773 3.52642L13.1928 2.3419L12.0609 3.4738L14.5264 5.93924Z" fill="#FA275A"/>
</svg>
