<svg width="24" height="24" viewBox="0 0 24 24" fill="none" xmlns="http://www.w3.org/2000/svg">
<path d="M24 12C24 15.3585 22.6202 18.3943 20.397 20.5729C18.2326 22.6927 15.2694 24 12 24C8.34417 24 5.06986 22.365 2.86875 19.7863C1.08 17.691 0 14.9711 0 12C0 9.35902 0.853219 6.91692 2.29912 4.93519C2.58713 4.53994 2.89912 4.16325 3.23269 3.80672C5.42255 1.464 8.54006 0 12 0C13.464 0 14.8668 0.262031 16.1638 0.742547C17.4696 1.22498 18.6681 1.92881 19.7148 2.80852C22.3347 5.00962 24 8.31038 24 12Z" fill="#FFE261"/>
<path d="M20.3972 20.5729C18.2328 22.6927 15.2695 24 12.0001 24C8.3443 24 5.06999 22.365 2.86888 19.7863C3.13241 16.6702 3.15444 13.5379 2.93549 10.4189C2.80668 8.58464 2.59461 6.75473 2.29925 4.93514C2.2101 4.38412 2.11311 3.83409 2.0083 3.28552L3.23277 3.80667L3.62704 3.9742L4.87897 2.73797L6.49775 3.42661L7.74918 2.19038L9.36796 2.87902L10.6194 1.64325L12.2382 2.33142L13.4901 1.09519H13.4906L15.1093 1.78383L16.1639 0.7425L16.3613 0.547547L17.9805 1.23619L19.2325 0C19.4107 0.934031 19.5714 1.87003 19.7149 2.80847C19.9965 4.64423 20.2121 6.48731 20.3624 8.33484C20.693 12.407 20.7048 16.4993 20.3972 20.5729Z" fill="#F2F2F7"/>
<path d="M20.3624 8.33484L2.93549 10.4189C2.80668 8.58464 2.59461 6.75473 2.29925 4.93514C2.2101 4.38412 2.11311 3.83409 2.0083 3.28552L3.23277 3.80667L3.62704 3.9742L4.87897 2.73797L6.49775 3.42661L7.74918 2.19037L9.36796 2.87902L10.6194 1.64325L12.2382 2.33142L13.4901 1.09519H13.4906L15.1093 1.78383L16.1639 0.7425L16.3613 0.547547L17.9805 1.23619L19.2325 0C19.4108 0.934031 19.5715 1.87003 19.715 2.80847C19.9966 4.64423 20.2121 6.48736 20.3624 8.33484Z" fill="#FF526C"/>
<path d="M7.33484 16.174V14.3688C7.33484 13.1102 8.16124 12.6526 9.24176 12.6526C10.3097 12.6526 11.1487 13.1103 11.1487 14.3688V16.174C11.1487 17.4326 10.3096 17.8902 9.24176 17.8902C8.16124 17.8902 7.33484 17.4325 7.33484 16.174ZM9.87748 14.3687C9.87748 13.9492 9.63593 13.7586 9.24176 13.7586C8.84768 13.7586 8.61889 13.9493 8.61889 14.3687V16.1739C8.61889 16.5935 8.84768 16.7842 9.24176 16.7842C9.63589 16.7842 9.87748 16.5935 9.87748 16.1739V14.3687ZM15.0897 12.8051C15.0897 12.8814 15.0769 12.9704 15.0388 13.0466L10.5639 22.2125C10.4749 22.4032 10.2334 22.5303 9.9919 22.5303C9.55967 22.5303 9.27996 22.1744 9.27996 21.8565C9.27996 21.7802 9.30537 21.6913 9.34353 21.615L13.8057 12.4492C13.9073 12.233 14.1108 12.1313 14.3396 12.1313C14.6956 12.1313 15.0897 12.3983 15.0897 12.8051ZM13.1701 20.2675V18.4623C13.1701 17.2037 13.9964 16.7461 15.077 16.7461C16.1449 16.7461 16.9839 17.2038 16.9839 18.4623V20.2675C16.9839 21.5261 16.1449 21.9838 15.077 21.9838C13.9963 21.9837 13.1701 21.526 13.1701 20.2675ZM15.7126 18.4623C15.7126 18.0428 15.471 17.8521 15.0769 17.8521C14.6828 17.8521 14.454 18.0428 14.454 18.4623V20.2675C14.454 20.687 14.6829 20.8777 15.0769 20.8777C15.4709 20.8777 15.7126 20.687 15.7126 20.2675V18.4623Z" fill="#374266"/>
</svg>
