<svg width="24" height="24" viewBox="0 0 24 24" fill="none" xmlns="http://www.w3.org/2000/svg">
<path fill-rule="evenodd" clip-rule="evenodd" d="M2 4.5C2 3.11929 3.11929 2 4.5 2H7C7.55228 2 8 2.44772 8 3C8 3.55228 7.55228 4 7 4H4.5C4.22386 4 4 4.22386 4 4.5V7C4 7.55228 3.55228 8 3 8C2.44772 8 2 7.55228 2 7V4.5ZM22 4.5C22 3.11929 20.8807 2 19.5 2H17C16.4477 2 16 2.44772 16 3C16 3.55228 16.4477 4 17 4H19.5C19.7761 4 20 4.22386 20 4.5V7C20 7.55228 20.4477 8 21 8C21.5523 8 22 7.55228 22 7V4.5ZM4.5 22C3.11929 22 2 20.8807 2 19.5V17C2 16.4477 2.44772 16 3 16C3.55228 16 4 16.4477 4 17V19.5C4 19.7761 4.22386 20 4.5 20H7C7.55228 20 8 20.4477 8 21C8 21.5523 7.55228 22 7 22H4.5ZM22 19.5C22 20.8807 20.8807 22 19.5 22H17C16.4477 22 16 21.5523 16 21C16 20.4477 16.4477 20 17 20H19.5C19.7761 20 20 19.7761 20 19.5V17C20 16.4477 20.4477 16 21 16C21.5523 16 22 16.4477 22 17V19.5ZM3 11C2.44772 11 2 11.4477 2 12C2 12.5523 2.44772 13 3 13H21C21.5523 13 22 12.5523 22 12C22 11.4477 21.5523 11 21 11H3Z" fill="#FA275A"/>
</svg>
