<svg width="12" height="14" viewBox="0 0 12 14" fill="none" xmlns="http://www.w3.org/2000/svg">
<path fill-rule="evenodd" clip-rule="evenodd" d="M3.33329 5.00004C3.33329 5.36823 3.63177 5.66671 3.99996 5.66671C4.36815 5.66671 4.66663 5.36823 4.66663 5.00004V4.33337H7.33329V5.00004C7.33329 5.36823 7.63177 5.66671 7.99996 5.66671C8.36815 5.66671 8.66663 5.36823 8.66663 5.00004V4.33337H8.83751L9.58647 8.45263L9.80721 9.66671H2.19524L2.41345 8.45263L2.41369 8.4513L3.1624 4.33337H3.33329V5.00004ZM4.66663 3.00004L7.33329 3.00004C7.33329 2.26366 6.73634 1.66671 5.99996 1.66671C5.26358 1.66671 4.66663 2.26366 4.66663 3.00004ZM8.66663 3.00004C8.66663 1.52728 7.47272 0.333374 5.99996 0.333374C4.5272 0.333374 3.33329 1.52728 3.33329 3.00004L2.60602 3.00004C2.28383 3.00004 2.00774 3.23046 1.95011 3.54745L1.10162 8.21412L1.10138 8.21544L0.677139 10.5759C0.670144 10.6148 0.666626 10.6543 0.666626 10.6938V13C0.666626 13.3682 0.965103 13.6667 1.33329 13.6667H10.6666C11.0348 13.6667 11.3333 13.3682 11.3333 13V10.6667C11.3333 10.6267 11.3297 10.5868 11.3225 10.5475L10.8983 8.21412L10.0498 3.54745C9.99218 3.23046 9.71609 3.00004 9.3939 3.00004L8.66663 3.00004ZM1.99996 12.3334V11H9.99996V12.3334H1.99996Z" fill="#FA275A"/>
</svg>
