<svg width="60" height="60" viewBox="0 0 60 60" fill="none" xmlns="http://www.w3.org/2000/svg">
<rect width="60" height="60" fill="#E5E5E5"/>
<g clip-path="url(#clip0)">
<rect width="1680" height="2179" transform="translate(-1345 -824)" fill="#FCFCFC"/>
<circle cx="30" cy="30" r="30" fill="#FFDD00"/>
<path d="M42.7143 26.8286C46.6857 25.8571 49 24.1143 49 22C49 18.2857 42.2 16.3714 35.4857 16.3714C34.4571 16.3714 33.4286 16.4286 32.4 16.5143L31.1714 15.2857C30.7429 14.8286 29.4 14 28.5143 14H18.4C18.0857 14 17.3143 14 15.1429 16.1429C13 18.3143 13 19.1143 13 19.4V29.4857C13 30.4 13.8286 31.7143 14.2571 32.1429L30.2286 48.1143C30.8 48.6857 31.5429 48.9714 32.2857 48.9714C33.0286 48.9714 33.7714 48.6857 34.3429 48.1143L47.1143 35.3429C48.2571 34.2 48.2571 32.3429 47.1143 31.2L42.7143 26.8286ZM35.4857 18.6286C42.2286 18.6286 46.7143 20.6571 46.7143 21.9714C46.7143 22.7429 44.8571 24.1143 40.8 24.8571L34.5429 18.6571C34.8571 18.6571 35.1714 18.6286 35.4857 18.6286ZM45.5429 33.7714L32.7714 46.5429C32.5143 46.8 32.1143 46.8 31.8857 46.5429L15.8857 30.5429C15.7143 30.3714 15.3429 29.7143 15.2857 29.4571V19.5429C15.6571 18.8 17.8 16.6571 18.5429 16.2857H28.4571C28.7143 16.3429 29.3714 16.7143 29.5429 16.8857C27.1714 17.3429 25.0857 18.0571 23.7143 19.0571C22.1429 18.2571 20.1714 18.5143 18.8571 19.8286C17.2286 21.4571 17.2286 24.1429 18.8571 25.7714C19.6571 26.5714 20.7143 27 21.8286 27C22.9429 27 24 26.5714 24.8 25.7714C25.6 24.9714 26.0286 23.9143 26.0286 22.8C26.0286 22.0286 25.8286 21.2857 25.4286 20.6571C26.6571 19.9143 28.7714 19.2286 31.5429 18.8857L45.5429 32.8571C45.7714 33.1143 45.7714 33.5143 45.5429 33.7714ZM22.8286 24.1143C22.8857 24.2 22.9714 24.2571 23.0571 24.3143C22.7143 24.6 22.2857 24.7429 21.8286 24.7429C21.3143 24.7429 20.8286 24.5429 20.4857 24.1714C19.7429 23.4286 19.7429 22.2 20.4857 21.4571C20.8571 21.0857 21.3429 20.8857 21.8286 20.8857C21.9429 20.8857 22.0571 20.8857 22.1714 20.9143C22.0286 21.2571 21.9714 21.6 21.9714 21.9714C21.9714 22.7429 22.2571 23.4571 22.8286 24.1143Z" fill="#FA275A"/>
<path d="M40.5428 32.3429L31.5142 41.3429C31.0571 41.8 31.0571 42.5143 31.5142 42.9714C31.7428 43.2 32.0285 43.3143 32.3142 43.3143C32.6 43.3143 32.8857 43.2 33.1142 42.9714L42.1428 33.9429C42.6 33.4857 42.6 32.7714 42.1428 32.3143C41.6857 31.8857 40.9714 31.8857 40.5428 32.3429Z" fill="#FA275A"/>
<path d="M34.1428 35.1428L34.5999 30.9713L32.1428 26.8571L29.3428 29.5713L27.1142 25.8285L25.2285 27.6571L28.7999 33.5999L31.5999 30.9142L34.1428 35.1428Z" fill="#FA275A"/>
</g>
<defs>
<clipPath id="clip0">
<rect width="1680" height="2179" fill="white" transform="translate(-1345 -824)"/>
</clipPath>
</defs>
</svg>
