<svg width="24" height="24" viewBox="0 0 24 24" fill="none" xmlns="http://www.w3.org/2000/svg">
<path d="M20 11V7.66667C20 6.74618 19.2538 6 18.3333 6H1.66667C0.746181 6 0 6.74618 0 7.66667V11C0.920486 11 1.66667 11.7462 1.66667 12.6667C1.66667 13.5872 0.920486 14.3333 0 14.3333V17.3333C0 18.2538 0.746181 19 1.66667 19H18.3333C19.2538 19 20 18.2538 20 17.3333V14.3333C19.0795 14.3333 18.3333 13.5872 18.3333 12.6667C18.3333 11.7462 19.0795 11 20 11Z" fill="white"/>
<rect opacity="0.3" x="4" y="8" width="12" height="9" rx="1" fill="#FFDD00"/>
<path d="M7 11H13" stroke="#F02556" stroke-linecap="round"/>
<path d="M7 14H10" stroke="#F02556" stroke-linecap="round"/>
<circle cx="19" cy="7" r="5" fill="#FFDD00"/>
<g clip-path="url(#clip0)">
<path d="M18.0379 9.14909L16.0879 7.19909C15.9707 7.08194 15.9707 6.89199 16.0879 6.77483L16.5121 6.35056C16.6293 6.2334 16.8192 6.2334 16.9364 6.35056L18.25 7.66416L21.0636 4.85056C21.1808 4.73341 21.3707 4.73341 21.4879 4.85056L21.9121 5.27483C22.0293 5.39198 22.0293 5.58193 21.9121 5.69909L18.4621 9.1491C18.345 9.26625 18.155 9.26625 18.0379 9.14909Z" fill="white"/>
</g>
<defs>
<clipPath id="clip0">
<rect width="6" height="6" fill="white" transform="translate(16 4)"/>
</clipPath>
</defs>
</svg>
