<svg width="24" height="24" viewBox="0 0 24 24" fill="none" xmlns="http://www.w3.org/2000/svg">
<path fill-rule="evenodd" clip-rule="evenodd" d="M9.99977 4.12132C9.44749 4.12132 8.99977 3.67361 8.99977 3.12132C8.99977 2.56904 9.44749 2.12132 9.99977 2.12132H14.2424C14.7947 2.12132 15.2424 2.56904 15.2424 3.12132C15.2424 3.67361 14.7947 4.12132 14.2424 4.12132H13.1211L13.1211 6C13.1211 6.02609 13.1201 6.05194 13.1181 6.07752C14.5329 6.27537 15.829 6.84323 16.9056 7.68015L17.2929 7.2929C17.6834 6.90237 18.3166 6.90237 18.7071 7.2929C19.0976 7.68342 19.0976 8.31659 18.7071 8.70711L18.3199 9.09436C19.2038 10.2315 19.7876 11.6134 19.9523 13.1213L21 13.1213C21.5523 13.1213 22 13.569 22 14.1213C22 14.6736 21.5523 15.1213 21 15.1213L19.922 15.1213C19.3768 19.0087 16.0377 22 12 22C7.58172 22 4 18.4183 4 14C4 9.87837 7.11691 6.48473 11.1222 6.04761C11.1215 6.03183 11.1211 6.01596 11.1211 6L11.1211 4.12132H9.99977ZM18 14C18 17.3137 15.3137 20 12 20C8.68629 20 6 17.3137 6 14C6 10.6863 8.68629 8 12 8C15.3137 8 18 10.6863 18 14ZM9.29289 11.2929C9.68342 10.9024 10.3166 10.9024 10.7071 11.2929L12.7071 13.2929C13.0976 13.6834 13.0976 14.3166 12.7071 14.7071C12.3166 15.0976 11.6834 15.0976 11.2929 14.7071L9.29289 12.7071C8.90237 12.3166 8.90237 11.6834 9.29289 11.2929Z" fill="white"/>
</svg>
