<svg width="24" height="23" viewBox="0 0 24 23" fill="none" xmlns="http://www.w3.org/2000/svg">
<path fill-rule="evenodd" clip-rule="evenodd" d="M12 16C11.2179 16 10.5908 16.0528 10.0557 16.1311C7.85024 16.4541 6 18.6979 6 21C6 21.5523 5.55228 22 5 22C4.44772 22 4 21.5523 4 21C4 18.4069 5.62494 15.8599 7.9591 14.7166C6.1687 13.4487 5 11.3608 5 9C5 5.13401 8.13401 2 12 2C15.866 2 19 5.13401 19 9C19 11.3608 17.8313 13.4487 16.0409 14.7166C18.3751 15.8599 20 18.4069 20 21C20 21.5523 19.5523 22 19 22C18.4477 22 18 21.5523 18 21C18 18.6979 16.1498 16.4541 13.9443 16.1311C13.4092 16.0528 12.7821 16 12 16ZM12 14C9.23858 14 7 11.7614 7 9C7 6.23858 9.23858 4 12 4C14.7614 4 17 6.23858 17 9C17 11.7614 14.7614 14 12 14Z" fill="black"/>
</svg>
