<?xml version="1.0" encoding="utf-8"?>
<!-- Generator: Adobe Illustrator 25.2.1, SVG Export Plug-In . SVG Version: 6.00 Build 0)  -->
<svg version="1.1" id="Layer_1" xmlns="http://www.w3.org/2000/svg" xmlns:xlink="http://www.w3.org/1999/xlink" x="0px" y="0px"
	 viewBox="0 0 75 36" style="enable-background:new 0 0 75 36;" xml:space="preserve">
<style type="text/css">
	.st0{fill:#5BC4BA;}
	.st1{opacity:0.3;fill:#ADE2DD;}
	.st2{clip-path:url(#SVGID_2_);}
	.st3{fill:#FFFFFF;}
</style>
<g>
	<path class="st0" d="M67,36H8c-4.4,0-8-3.6-8-8V8c0-4.4,3.6-8,8-8h59c4.4,0,8,3.6,8,8v20C75,32.4,71.4,36,67,36z"/>
</g>
<path class="st1" d="M27,34H11c-4.4,0-8-3.6-8-8V10c0-4.4,3.6-8,8-8h16c4.4,0,8,3.6,8,8v16C35,30.4,31.4,34,27,34z"/>
<g>
	<defs>
		<rect id="SVGID_1_" x="10.3" y="10" width="17.5" height="14"/>
	</defs>
	<clipPath id="SVGID_2_">
		<use xlink:href="#SVGID_1_"  style="overflow:visible;"/>
	</clipPath>
	<g class="st2">
		<path class="st3" d="M24.7,22.2H13.3c-0.2,0-0.4,0.2-0.4,0.4v0.9c0,0.2,0.2,0.4,0.4,0.4h11.4c0.2,0,0.4-0.2,0.4-0.4v-0.9
			C25.1,22.4,24.9,22.2,24.7,22.2z M26.5,13.5c-0.7,0-1.3,0.6-1.3,1.3c0,0.2,0,0.4,0.1,0.5l-2,1.2c-0.4,0.3-1,0.1-1.2-0.3l-2.2-3.9
			c0.3-0.2,0.5-0.6,0.5-1c0-0.7-0.6-1.3-1.3-1.3c-0.7,0-1.3,0.6-1.3,1.3c0,0.4,0.2,0.8,0.5,1L16,16.2c-0.2,0.4-0.8,0.6-1.2,0.3
			l-2-1.2c0.1-0.2,0.1-0.3,0.1-0.5c0-0.7-0.6-1.3-1.3-1.3c-0.7,0-1.3,0.6-1.3,1.3c0,0.7,0.6,1.3,1.3,1.3c0.1,0,0.1,0,0.2,0l2,5.3
			h10.5l2-5.3c0.1,0,0.1,0,0.2,0c0.7,0,1.3-0.6,1.3-1.3C27.8,14.1,27.2,13.5,26.5,13.5z"/>
	</g>
</g>
<g>
	<path class="st3" d="M46.5,24.3c-0.1,0-0.2-0.1-0.2-0.2l-3.6-10.9c0-0.1,0-0.2,0.1-0.2H45c0.1,0,0.2,0,0.2,0.2l2.3,7.4h0.1l2.2-7.4
		c0-0.1,0.1-0.2,0.2-0.2H52c0.1,0,0.2,0.1,0.1,0.2l-3.6,10.9c0,0.1-0.1,0.2-0.2,0.2H46.5z"/>
	<path class="st3" d="M53.8,13.2c0-0.1,0.1-0.2,0.2-0.2h2.1c0.1,0,0.2,0.1,0.2,0.2v10.9c0,0.1-0.1,0.2-0.2,0.2H54
		c-0.1,0-0.2-0.1-0.2-0.2V13.2z"/>
	<path class="st3" d="M58,24.3c-0.1,0-0.2-0.1-0.2-0.2V13.2c0-0.1,0.1-0.2,0.2-0.2h4.4c2.5,0,3.9,1.5,3.9,3.6c0,2.1-1.5,3.6-3.9,3.6
		h-2c-0.1,0-0.1,0-0.1,0.1v3.8c0,0.1-0.1,0.2-0.2,0.2H58z M63.9,16.6c0-0.9-0.6-1.5-1.6-1.5h-1.9c-0.1,0-0.1,0-0.1,0.1V18
		c0,0.1,0,0.1,0.1,0.1h1.9C63.3,18.1,63.9,17.5,63.9,16.6z"/>
</g>
</svg>
