<svg width="20" height="14" viewBox="0 0 20 14" fill="none" xmlns="http://www.w3.org/2000/svg">
<path fill-rule="evenodd" clip-rule="evenodd" d="M2 0C0.89543 0 0 0.89543 0 2V3.25C0 3.92984 0.345271 4.5624 0.915352 4.93034L0.923461 4.93606C0.941734 4.94911 0.980132 4.97749 1.03213 5.02082C1.13805 5.10908 1.28809 5.24917 1.43826 5.43689C1.73537 5.80827 2 6.31851 2 7C2 7.68149 1.73537 8.19172 1.43826 8.56311C1.28809 8.75083 1.13805 8.89092 1.03213 8.97918C0.980132 9.02251 0.941734 9.05089 0.923461 9.06394L0.915358 9.06966C0.345274 9.4376 0 10.0702 0 10.75V12C0 13.1046 0.89543 14 2 14H18C19.1046 14 20 13.1046 20 12V10.75C20 10.0702 19.6548 9.43768 19.0847 9.06972L19.0765 9.06394C19.0583 9.05089 19.0199 9.02251 18.9679 8.97918C18.862 8.89092 18.7119 8.75083 18.5617 8.56311C18.2646 8.19172 18 7.68149 18 7C18 6.31851 18.2646 5.80827 18.5617 5.43689C18.7119 5.24917 18.862 5.10908 18.9679 5.02082C19.0199 4.97749 19.0583 4.94911 19.0765 4.93606L19.0847 4.93034C19.6547 4.5624 20 3.92984 20 3.25V2C20 0.89543 19.1046 0 18 0H2ZM2 3.25C2 3.25 2.4 3.5 2.84223 4C3.38885 4.61803 4 5.61803 4 7C4 8.38197 3.38885 9.38197 2.84223 10C2.4 10.5 2 10.75 2 10.75V12H2.78161H3.65457H4H12V2H4H3.65457H2.78161H2V3.25ZM14 2V12H16H16.3454H17.2184H18V10.75C18 10.75 17.6 10.5 17.1578 10C16.6111 9.38197 16 8.38197 16 7C16 5.61803 16.6111 4.61803 17.1578 4C17.6 3.5 18 3.25 18 3.25V2H17.2184H16.3454H16H14Z" fill="white"/>
</svg>
