<svg width="14" height="14" viewBox="0 0 14 14" fill="none" xmlns="http://www.w3.org/2000/svg">
<path fill-rule="evenodd" clip-rule="evenodd" d="M0.333496 6.99967C0.333496 10.6816 3.31826 13.6663 7.00016 13.6663C10.6821 13.6663 13.6668 10.6816 13.6668 6.99967C13.6668 3.31778 10.6821 0.333008 7.00016 0.333008C3.31826 0.333008 0.333496 3.31778 0.333496 6.99967ZM1.66683 6.99967C1.66683 4.05416 4.05464 1.66634 7.00016 1.66634C9.94568 1.66634 12.3335 4.05416 12.3335 6.99967C12.3335 9.94519 9.94568 12.333 7.00016 12.333C4.05464 12.333 1.66683 9.94519 1.66683 6.99967ZM7.00008 2.83301C6.54533 2.83301 6.18188 3.21129 6.20006 3.66567L6.3501 7.41684C6.36406 7.76571 6.65094 8.04134 7.00008 8.04134C7.34923 8.04134 7.63611 7.76571 7.65006 7.41684L7.80011 3.66568C7.81828 3.21129 7.45483 2.83301 7.00008 2.83301ZM6.04183 10.0205C6.04183 9.50274 6.46156 9.08301 6.97933 9.08301C7.4971 9.08301 7.91683 9.50274 7.91683 10.0205C7.91683 10.5383 7.4971 10.958 6.97933 10.958C6.46156 10.958 6.04183 10.5383 6.04183 10.0205Z" fill="#FA275A"/>
</svg>
